PathFileType	4	(X/Y/Z)	F:\MotionCapture\20160217\3\Generated_files\EMG_test03-Dynamic.trc
DataRate	CameraRate	NumFrames	NumMarkers	Units	OrigDataRate	OrigDataStartFrame	OrigNumFrames
120.00	120.00	       4	39	mm	120.00	462	       739
Frame#	Time	Top.Head			Front.Head			Rear.Head			R.Shoulder			R.Offset			R.Elbow			R.Wrist			L.Shoulder			L.Elbow			L.Wrist			R.ASIS			L.ASIS			V.Sacral			R.Thigh			R.Knee			R.Shank			R.Ankle			R.Heel			R.Toe			L.Thigh			L.Knee			L.Shank			L.Ankle			L.Heel			L.Toe			R1			R2			R3			R4			R5			R6			R7			L1			L2			L3			L4			L5			L6			L7			V_Mid_ASIS			V_Pelvis_Origin			V_R.Hip_JC			V_L.Hip_JC			V_R.Knee_JC			V_L.Knee_JC			V_R.Ankle_JC			V_L.Ankle_JC			V_Mid_Hip			V_Mid_Shoulder			V_R.Hand			V_L.Hand			V_R.Toe_Offset_Static			V_L.Toe_Offset_Static			V_R.Toe_Offset			V_L.Toe_Offset			
		X1	Y1	Z1	X2	Y2	Z2	X3	Y3	Z3	X4	Y4	Z4	X5	Y5	Z5	X6	Y6	Z6	X7	Y7	Z7	X8	Y8	Z8	X9	Y9	Z9	X10	Y10	Z10	X11	Y11	Z11	X12	Y12	Z12	X13	Y13	Z13	X14	Y14	Z14	X15	Y15	Z15	X16	Y16	Z16	X17	Y17	Z17	X18	Y18	Z18	X19	Y19	Z19	X20	Y20	Z20	X21	Y21	Z21	X22	Y22	Z22	X23	Y23	Z23	X24	Y24	Z24	X25	Y25	Z25	X26	Y26	Z26	X27	Y27	Z27	X28	Y28	Z28	X29	Y29	Z29	X30	Y30	Z30	X31	Y31	Z31	X32	Y32	Z32	X33	Y33	Z33	X34	Y34	Z34	X35	Y35	Z35	X36	Y36	Z36	X37	Y37	Z37	X38	Y38	Z38	X39	Y39	Z39	

462	3.842	54.33330	71.33428	1705.16931	168.78900	65.64700	1626.15564	-50.34597	88.94109	1632.48999	-2.03642	-113.74061	1395.12891	-113.16627	169.37495	1255.33240	-107.78552	-195.46320	1086.10059	-73.06867	-216.24107	825.36523	50.67083	289.82660	1404.57800	150.48106	395.68472	1100.43860	361.19070	344.41068	961.76202	88.16196	-44.24438	923.12671	85.18394	245.47803	918.98969	-136.45496	95.16248	922.71350	245.08533	-25.31434	606.69476	219.44469	-62.70968	484.75430	280.16681	6.63729	260.36627	269.76807	-60.59711	84.62537	215.92534	6.18462	39.20703	409.27853	-45.74105	90.80622	66.71635	185.81680	589.08282	-65.84904	229.54759	447.49438	-91.33825	146.48088	311.38004	-228.22508	199.23392	71.94062	-293.46521	139.81506	63.26288	-91.59900	193.41437	37.90288	446.58130	-33.05867	112.50658	415.57751	-9.69185	99.01790	326.19580	26.19245	88.34333	261.65640	33.12653	55.15976	242.29001	-40.06845	47.12681	322.59732	-70.49107	54.27507	379.52325	-81.66023	71.32310	-45.35013	169.26457	31.86044	-78.27168	154.32014	40.74657	-170.91457	109.93021	48.33446	-252.87213	109.20653	57.93068	-265.11771	180.70305	57.25511	-195.31615	210.58305	36.13141	-133.40666	225.92865	35.98240	
463	3.850	66.93266	70.79765	1703.26440	181.64735	64.92264	1624.05774	-37.66404	88.00175	1630.13391	10.10324	-114.88268	1393.15710	-101.35831	168.16212	1253.23950	-98.00544	-196.29622	1084.83972	-65.50788	-215.95174	823.53412	62.92646	288.52985	1402.27600	166.45187	394.42853	1099.53052	380.76471	341.36807	966.80438	101.56233	-44.65316	920.79578	97.26669	244.54236	917.36011	-124.75306	93.53052	920.89545	255.41020	-22.96185	603.01135	232.75310	-61.52565	483.80875	301.78183	6.18480	261.32559	299.01300	-62.03988	85.91828	245.13135	4.07504	37.85215	438.17474	-46.68559	97.82304	75.99409	186.45454	586.87103	-59.51237	229.64774	447.13196	-86.18348	147.08403	311.09531	-226.29645	198.36653	72.68632	-293.41599	138.29796	68.70339	-90.51609	193.21414	38.04479	475.80194	-33.59491	120.35860	444.47845	-10.41468	106.05910	354.90649	24.87953	91.35516	291.67249	31.20866	55.47556	272.72260	-41.84579	47.51830	352.03336	-71.70312	58.60091	409.11725	-83.26754	77.89022	-45.49971	169.60001	31.29425	-78.10591	154.81915	40.86235	-170.54433	110.14227	49.48600	-252.41016	109.24876	60.07519	-264.63205	180.79482	59.89928	-194.86450	210.82449	36.90891	-133.21364	226.29051	36.00006																																																	352.12387	-72.41643	58.57845	
464	3.858	79.58148	69.84897	1700.89417	194.08710	63.81374	1622.19141	-25.35439	87.11153	1628.10535	21.97393	-116.28150	1391.17603	-89.84086	166.89157	1251.17444	-88.38914	-196.83813	1083.42468	-57.67107	-215.56989	821.90570	75.00121	287.28983	1399.99780	183.08551	393.11584	1098.87305	399.63177	338.51926	971.51093	114.85060	-45.96867	918.92670	109.22732	243.86446	915.36395	-111.96580	92.08409	919.20630	265.81757	-20.32180	599.74792	245.40039	-60.52966	482.71347	321.99368	6.22946	262.70670	326.74033	-63.34653	87.57861	276.04456	2.49860	37.06377	464.23798	-47.12025	105.93540	85.15742	187.55162	584.96997	-52.09804	229.63914	446.15939	-80.31622	147.73679	310.76642	-226.46109	199.21756	74.95947	-292.54544	139.93115	69.80727	-90.33121	192.98491	37.86202	502.62769	-34.23044	128.72556	471.17093	-11.33405	113.09961	382.29782	24.00360	94.87766	320.43384	29.91187	56.23637	302.12729	-43.05645	47.59366	377.76047	-75.03935	63.08982	436.71518	-83.89700	84.09071	-45.64392	169.42903	31.04387	-78.00938	155.07079	40.86448	-170.80060	109.84094	50.89015	-251.53827	109.81810	62.92812	-264.17746	181.15617	62.33578	-195.46375	211.17012	37.04609	-132.83792	226.61981	35.79613																																																	-154.40929	69.31332	11.10313	
465	3.867	92.58483	68.85319	1698.76880	206.15541	62.77489	1619.58752	-12.90836	86.09220	1626.44727	34.11401	-117.83319	1389.25720	-77.36394	165.24498	1249.29932	-77.34473	-198.18063	1081.83801	-49.43581	-214.93216	819.98199	87.50684	285.62659	1397.48608	198.77515	391.26050	1098.27869	418.14008	335.90897	975.85419	128.03001	-46.92580	916.92578	120.85117	243.17560	913.44684	-99.31377	90.13545	917.29510	276.31427	-18.00494	596.98291	257.77734	-59.77919	481.48444	341.26459	5.89495	264.18665	352.13638	-63.85079	88.98164	305.02502	2.10036	36.63314	490.47321	-48.20676	111.99998	94.80318	188.47220	582.99304	-44.77849	229.76334	445.77600	-75.29079	147.70465	309.98233	-225.71387	199.62616	77.35128	-291.52478	140.53683	73.60810	-89.80384	192.87340	37.73874	526.01398	-34.58482	137.22949	496.91959	-11.77445	120.05143	407.87872	23.18805	98.08643	347.25482	28.92213	57.54958	330.37561	-43.67389	48.17109	404.73627	-75.74699	66.73503	462.65982	-84.49697	89.91678	-45.26588	169.83984	31.60838	-78.06574	155.29622	40.79256	-170.22595	110.33732	52.69304	-250.88127	110.05625	65.77441	-263.40939	181.50049	65.28683	-194.92641	211.59877	38.43537	-132.48077	227.03670	36.06753																																																	-165.35153	75.99152	19.26399	
